<svg xmlns="http://www.w3.org/2000/svg" width="470.94" height="436.743" viewBox="0 0 470.94 436.743">
  <g id="Page-1" transform="translate(12.001 21)">
    <g id="Artboard" transform="translate(-186 -65)">
      <g id="Group-2" transform="translate(173.394 43.508)">
        <path id="Mask" d="M420.832,118.511c-73.165-80.169-188-125.392-249.362-75.873s-4.425,151.3-96.3,169.094S-6.957,425.48,205.415,415.348c169.266-8.116,158.175-153.964,207.84-153.964S464.562,166.427,420.832,118.511Z" transform="translate(24.171 -23.478) rotate(6)" fill="#fff" opacity="0.95"/>
        <g id="square">
          <g id="Group" transform="translate(27.266 62.549)">
            <g id="Group_6" data-name="Group 6" transform="translate(0 179)" opacity="0.2">
              <g id="Group_1" data-name="Group 1" transform="translate(0 55.824)">
                <path id="Shape" d="M41.06,17.209v.927H36.873v.81h-4v-.81H28.023v-.927H18.154v1.585H5.117V17.268H0V117.393H44.995V17.209ZM6.286,109.927H3.948v-9.249H6.286Zm0-12.665H3.948V88.048H6.286Zm0-12.665H3.948v-9.25H6.286Zm0-12.665H3.948v-9.25H6.286Zm0-12.665H3.948v-9.25H6.286Zm0-12.665H3.948V37.34H6.286Zm0-12.665H3.948V24.663H6.286Zm4.337,76.015H8.285V100.7h2.363Zm0-12.665H8.285V88.048h2.363Zm0-12.665H8.285V75.371h2.363Zm0-12.665H8.285V62.706h2.363Zm0-12.665H8.285V50.041h2.363Zm0-12.665H8.285V37.34h2.363Zm0-12.665H8.285v-9.3h2.363Zm4.35,76.014h-2.4v-9.249h2.363Zm0-12.665h-2.4V88.048h2.363Zm0-12.665h-2.4V75.394h2.363Zm0-12.665h-2.4v-9.25h2.363Zm0-12.665h-2.4v-9.25h2.363Zm0-12.665h-2.4V37.34h2.363Zm0-12.665h-2.4v-9.32h2.363ZM19.323,110H16.972v-9.25h2.364Zm0-12.666H16.972V88.048h2.364Zm0-12.665H16.972V75.418h2.364Zm0-12.665H16.972V62.753h2.364Zm0-12.665H16.972v-9.25h2.364Zm0-12.665H16.972V37.34h2.364Zm0-12.665H16.972V24.663h2.364Zm4.337,76.015H21.372v-9.249h2.363Zm0-12.665H21.372V88.048h2.363Zm0-12.665H21.372v-9.25h2.363Zm0-12.665H21.372V62.776h2.363Zm0-12.665H21.372v-9.25h2.363Zm0-12.665H21.372V37.34h2.363Zm0-12.665H21.372V24.663h2.363ZM28,110.045H25.659v-9.25h2.364Zm0-12.666H25.659V88.048h2.364Zm0-12.665H25.659V75.465h2.364Zm0-12.665H25.659V62.8h2.364Zm0-12.665H25.659V50.134h2.364Zm0-12.665H25.659V37.34h2.364Zm0-12.665H25.659v-9.39h2.364Zm4.35,76.015H30.009v-9.249h2.364Zm0-12.665H30.009V88.048h2.364Zm0-12.665H30.009v-9.25h2.364Zm0-12.665H30.009v-9.25h2.364Zm0-12.665H30.009v-9.25h2.364Zm0-12.665H30.009v-9.4h2.364Zm0-12.665H30.009V24.663h2.364Zm4.337,76.015H34.359v-9.25H36.71Zm0-12.666H34.359V88.048H36.71Zm0-12.665H34.359V75.512H36.71Zm0-12.665H34.359v-9.25H36.71Zm0-12.665H34.359v-9.25H36.71Zm0-12.665H34.359V37.34H36.71Zm0-12.665H34.359V24.663H36.71Zm4.35,76.015H38.7v-9.249H41.06Zm0-12.665H38.7v-9.4H41.06Zm0-12.665H38.7V75.535H41.06Zm0-12.665H38.7V62.87H41.06Zm0-12.665H38.7V50.2H41.06Zm0-12.665H38.7V37.34H41.06Zm0-12.665H38.7V24.663H41.06Z" fill="#392e80"/>
                <rect id="Rectangle" width="2.841" height="2.688" transform="translate(15.313 14.522)" fill="#392e80"/>
                <rect id="Rectangle-2" data-name="Rectangle" width="4.664" height="2.688" transform="translate(5.117 14.522)" fill="#392e80"/>
                <rect id="Rectangle-3" data-name="Rectangle" width="4.664" height="1.526" transform="translate(5.117 17.209)" fill="#392e80"/>
                <rect id="Rectangle-4" data-name="Rectangle" width="2.841" height="1.526" transform="translate(15.313 17.209)" fill="#392e80"/>
                <rect id="Rectangle-5" data-name="Rectangle" width="4.174" height="4.12" transform="translate(36.873 13.09)" fill="#392e80"/>
                <rect id="Rectangle-6" data-name="Rectangle" width="4.853" height="4.12" transform="translate(28.023 13.09)" fill="#392e80"/>
                <rect id="Rectangle-7" data-name="Rectangle" width="4.174" height="1" transform="translate(36.873 17.209)" fill="#392e80"/>
                <rect id="Rectangle-8" data-name="Rectangle" width="4.853" height="1" transform="translate(28.023 17.209)" fill="#392e80"/>
                <rect id="Rectangle-9" data-name="Rectangle" width="3.998" height="5.611" transform="translate(32.875 7.491)" fill="#392e80"/>
                <rect id="Rectangle-10" data-name="Rectangle" width="3.998" height="1" transform="translate(32.875 18.149)" fill="#392e80"/>
                <rect id="Rectangle-11" data-name="Rectangle" width="3.998" height="4.12" transform="translate(32.875 13.09)" fill="#392e80"/>
                <rect id="Rectangle-12" data-name="Rectangle" width="3.998" height="1" transform="translate(32.875 17.209)" fill="#392e80"/>
                <path id="Path" d="M15.313,10.179H13.263v4.284h-.918V10.179H9.793v4.343h5.519Z" fill="#392e80" fill-rule="evenodd"/>
                <rect id="Rectangle-13" data-name="Rectangle" width="5.519" height="2.688" transform="translate(9.781 14.522)" fill="#392e80"/>
                <rect id="Rectangle-14" data-name="Rectangle" width="5.519" height="1.526" transform="translate(9.781 17.209)" fill="#392e80"/>
                <rect id="Rectangle-15" data-name="Rectangle" width="1" height="10.153" transform="translate(12.345 0.037)" fill="#392e80"/>
                <rect id="Rectangle-16" data-name="Rectangle" width="1" height="4.284" transform="translate(12.345 10.179)" fill="#392e80"/>
              </g>
              <g id="Group_2" data-name="Group 2" transform="translate(56.573)">
                <path id="Shape-2" data-name="Shape" d="M54.688,44.98v.293H8.172V44.98H.453V173.216h62V44.98ZM19.336,166.08H4.249v-2.688H19.336Zm0-6.057H4.249v-2.688H19.336Zm0-6.057H4.249v-2.688H19.336Zm0-12.665H4.249v-2.688H19.336Zm0-6.057H4.249v-2.688H19.336Zm0-6.068H4.249v-2.688H19.336Zm0-12.666H4.249v-2.688H19.336Zm0-6.068H4.249v-2.688H19.336Zm0-6.057H4.249V101.7H19.336Zm0-12.665H4.249V89.032H19.336Zm0-6.057H4.249V82.975H19.336Zm0-6.057H4.249V76.919H19.336Zm0-12.665H4.249V64.253H19.336Zm0-6.057H4.249v-2.7H19.336Zm0-6.057H4.249V52.14H19.336ZM38.973,166.08H23.886v-2.688H38.973Zm0-6.057H23.886v-2.688H38.973Zm0-6.057H23.886v-2.688H38.973Zm0-12.665H23.886v-2.688H38.973Zm0-6.057H23.886v-2.688H38.973Zm0-6.068H23.886v-2.688H38.973Zm0-12.666H23.886v-2.688H38.973Zm0-6.068H23.886v-2.688H38.973Zm0-6.057H23.886V101.7H38.973Zm0-12.665H23.886V89.032H38.973Zm0-6.057H23.886V82.975H38.973Zm0-6.057H23.886V76.919H38.973Zm0-12.665H23.886V64.253H38.973Zm0-6.057H23.886v-2.7H38.973Zm0-6.057H23.886V52.14H38.973ZM58.623,166.1H43.536v-2.688H58.623Zm0-6.057H43.536v-2.688H58.623Zm0-6.056H43.536V151.3H58.623Zm0-12.666H43.536v-2.688H58.623Zm0-6.056H43.536V132.58H58.623Zm0-6.069H43.536v-2.688H58.623Zm0-12.665H43.536v-2.712H58.623Zm0-6.069H43.536v-2.688H58.623Zm0-6.056H43.536v-2.688H58.623Zm0-12.665H43.536V89.055H58.623Zm0-6.057H43.536V83H58.623Zm0-6.057H43.536V76.942H58.623Zm0-12.665H43.536V64.277H58.623Zm0-6.057H43.536V58.185H58.623Zm0-6.057H43.536V52.163H58.623Z" fill="#392e80"/>
                <path id="Path-2" data-name="Path" d="M54.688,34.768H44.454v3.439H18.443V34.768H8.209V44.98H54.688Z" fill="#392e80" fill-rule="evenodd"/>
                <rect id="Rectangle-17" data-name="Rectangle" width="46.478" height="1" transform="translate(8.209 44.98)" fill="#392e80"/>
                <rect id="Rectangle-18" data-name="Rectangle" width="9.492" height="4.073" transform="translate(34.962 30.683)" fill="#392e80"/>
                <rect id="Rectangle-19" data-name="Rectangle" width="9.492" height="4.073" transform="translate(18.443 30.683)" fill="#392e80"/>
                <rect id="Rectangle-20" data-name="Rectangle" width="9.492" height="3.451" transform="translate(34.962 34.756)" fill="#392e80"/>
                <rect id="Rectangle-21" data-name="Rectangle" width="9.492" height="3.451" transform="translate(18.443 34.756)" fill="#392e80"/>
                <path id="Path-3" data-name="Path" d="M34.962,23.159H32.586v4.4H30.311v-4.4H27.935v7.524h7.028Z" fill="#392e80" fill-rule="evenodd"/>
                <rect id="Rectangle-22" data-name="Rectangle" width="7.015" height="4.073" transform="translate(27.935 30.683)" fill="#392e80"/>
                <rect id="Rectangle-23" data-name="Rectangle" width="7.015" height="3.451" transform="translate(27.935 34.756)" fill="#392e80"/>
                <rect id="Rectangle-24" data-name="Rectangle" width="2.276" height="22.936" transform="translate(30.311 0.223)" fill="#392e80"/>
                <rect id="Rectangle-25" data-name="Rectangle" width="2.276" height="4.413" transform="translate(30.311 23.159)" fill="#392e80"/>
              </g>
              <g id="Group_3" data-name="Group 3" transform="translate(321.839 28.171)">
                <rect id="Rectangle-26" data-name="Rectangle" width="5.745" height="3.31" transform="translate(24.113 18.452)" fill="#392e80"/>
                <rect id="Rectangle-27" data-name="Rectangle" width="3.495" height="3.31" transform="translate(13.804 18.452)" fill="#392e80"/>
                <rect id="Rectangle-28" data-name="Rectangle" width="5.745" height="1.878" transform="translate(24.113 21.762)" fill="#392e80"/>
                <rect id="Rectangle-29" data-name="Rectangle" width="3.495" height="1.878" transform="translate(13.804 21.762)" fill="#392e80"/>
                <rect id="Rectangle-30" data-name="Rectangle" width="5.972" height="5.071" transform="translate(14.86 16.691)" fill="#392e80"/>
                <rect id="Rectangle-31" data-name="Rectangle" width="5.142" height="5.071" transform="translate(4.79 16.691)" fill="#392e80"/>
                <rect id="Rectangle-32" data-name="Rectangle" width="5.972" height="1.139" transform="translate(14.86 21.762)" fill="#392e80"/>
                <rect id="Rectangle-33" data-name="Rectangle" width="5.142" height="1.139" transform="translate(4.79 21.762)" fill="#392e80"/>
                <rect id="Rectangle-34" data-name="Rectangle" width="4.928" height="6.902" transform="translate(9.932 9.789)" fill="#392e80"/>
                <rect id="Rectangle-35" data-name="Rectangle" width="4.928" height="1" transform="translate(9.932 22.901)" fill="#392e80"/>
                <rect id="Rectangle-36" data-name="Rectangle" width="4.928" height="5.071" transform="translate(9.932 16.691)" fill="#392e80"/>
                <rect id="Rectangle-37" data-name="Rectangle" width="4.928" height="1.139" transform="translate(9.932 21.762)" fill="#392e80"/>
                <path id="Path-4" data-name="Path" d="M24.113,13.111H20.957V18.37H19.826V13.111H17.311v5.341h6.8Z" fill="#392e80" fill-rule="evenodd"/>
                <rect id="Rectangle-38" data-name="Rectangle" width="6.801" height="3.31" transform="translate(17.311 18.452)" fill="#392e80"/>
                <rect id="Rectangle-39" data-name="Rectangle" width="6.801" height="1.878" transform="translate(17.311 21.762)" fill="#392e80"/>
                <rect id="Rectangle-40" data-name="Rectangle" width="1.119" height="12.489" transform="translate(19.826 0.622)" fill="#392e80"/>
                <rect id="Rectangle-41" data-name="Rectangle" width="1.119" height="5.27" transform="translate(19.826 13.111)" fill="#392e80"/>
                <path id="Shape-3" data-name="Shape" d="M49.03,21.8v1.878H32.976V21.8H20.831v1.174H14.86v1H9.932v-1H4.79V21.8H0V145.045H55.316V21.8ZM7.707,135.9H4.8V124.516h2.9Zm0-15.587H4.8V108.928h2.9Zm0-15.588H4.8V93.34h2.9Zm0-15.588H4.8V77.752h2.9Zm0-15.588H4.8V62.164h2.9Zm0-15.588H4.8V46.576h2.9Zm0-15.588H4.8V30.988h2.9Zm5.343,93.539h-2.9V124.527h2.9Zm0-15.588h-2.9V108.939h2.9Zm0-15.588h-2.9V93.352h2.9Zm0-15.588h-2.9V77.764h2.9Zm0-15.588h-2.9V62.176h2.9Zm0-15.588h-2.9V46.588h2.9Zm0-15.588h-2.9V31h2.9Zm5.343,93.539h-2.9V124.539h2.9Zm0-15.588h-2.9V108.951h2.9Zm0-15.588h-2.9V93.363h2.9Zm0-15.588h-2.9V77.775h2.9Zm0-15.588h-2.9V62.187h2.9Zm0-15.588h-2.9V46.6h2.9Zm0-15.588h-2.9V31.011h2.9Zm5.343,93.54h-2.9V124.551h2.9Zm0-15.588h-2.9V108.963h2.9Zm0-15.588h-2.9V93.375h2.9Zm0-15.588h-2.9V77.787h2.9Zm0-15.588h-2.9V62.2h2.9Zm0-15.588h-2.9V46.611h2.9Zm0-15.588h-2.9V31.023h2.9Zm5.343,93.539h-2.9V124.563h2.9Zm0-15.588h-2.9V108.975h2.9Zm0-15.587h-2.9V93.387h2.9Zm0-15.588h-2.9V77.8h2.9Zm0-15.588h-2.9V62.211h2.9Zm0-15.588h-2.9V46.623h2.9Zm0-15.588h-2.9V31.035h2.9Zm5.343,93.539h-2.9V124.574h2.9Zm0-15.588h-2.9V108.986h2.9Zm0-15.588h-2.9V93.4h2.9Zm0-15.588h-2.9V77.811h2.9Zm0-15.588h-2.9V62.223h2.9Zm0-15.588h-2.9V46.635h2.9Zm0-15.588h-2.9V31.047h2.9Zm5.343,93.54h-2.9V124.586h2.9Zm0-15.588h-2.9V109h2.9Zm0-15.588h-2.9V93.41h2.9Zm0-15.588h-2.9V77.822h2.9Zm0-15.588h-2.9V62.234h2.9Zm0-15.588h-2.9V46.646h2.9Zm0-15.588h-2.9V31.059h2.9Zm5.343,93.54H42.2V124.6h2.9Zm0-15.588H42.2V109.01h2.9Zm0-15.588H42.2V93.422h2.9Zm0-15.588H42.2V77.834h2.9Zm0-15.588H42.2V62.246h2.9Zm0-15.588H42.2V46.658h2.9Zm0-15.588H42.2V31.07h2.9Zm5.343,93.539h-2.9V124.61h2.9Zm0-15.588h-2.9V109.022h2.9Zm0-15.588h-2.9V93.434h2.9Zm0-15.587h-2.9V77.846h2.9Zm0-15.588h-2.9V62.258h2.9Zm0-15.588h-2.9V46.67h2.9Zm0-15.588h-2.9V31.082h2.9Z" fill="#392e80"/>
              </g>
              <g id="Group_4" data-name="Group 4" transform="translate(252.139 63.385)">
                <path id="Path-5" data-name="Path" d="M56.776,3.521H46.14V6.069H19.1V3.521H8.463v7.536H56.776Z" fill="#392e80" fill-rule="evenodd"/>
                <rect id="Rectangle-42" data-name="Rectangle" width="48.314" height="1" transform="translate(8.463 11.057)" fill="#392e80"/>
                <rect id="Rectangle-43" data-name="Rectangle" width="27.042" height="3.005" transform="translate(19.098 0.528)" fill="#392e80"/>
                <rect id="Rectangle-44" data-name="Rectangle" width="27.042" height="2.535" transform="translate(19.098 3.521)" fill="#392e80"/>
                <path id="Shape-4" data-name="Shape" d="M56.776,11.233H8.463V11.01H.391v98.822H64.847V11.057H56.776Zm-36.76,94.4H4.326v-1.983H19.966Zm0-4.472H4.326V99.268H19.966Zm0-4.46H4.326V94.725H19.966Zm0-4.144H4.326V90.581H19.966Zm0-4.46H4.326V86.121H19.966Zm0-4.472H4.326v-1.96H19.966Zm0-4.143H4.326V77.505H19.966Zm0-4.46H4.326V73.045H19.966Zm0-4.46H4.326V68.585H19.966Zm0-4.143H4.326V64.441H19.966Zm0-4.46H4.326V59.981H19.966Zm0-4.46H4.326V55.509H19.966Zm0-4.155H4.326V51.365H19.966Zm0-4.46H4.326V46.9H19.966Zm0-4.46H4.326v-1.96H19.966Zm0-4.143H4.326V38.3H19.966Zm0-4.46H4.326V33.84H19.966Zm0-4.46H4.326V29.368H19.966Zm0-4.143H4.326V25.225H19.966Zm0-4.46H4.326V20.776H19.966Zm0-4.46H4.326V16.316H19.966Zm20.429,87.388H24.806v-1.983H40.445Zm0-4.472H24.806V99.268H40.445Zm0-4.46H24.806V94.772H40.445Zm0-4.143H24.806V90.628H40.445Zm0-4.46H24.806V86.168H40.445Zm0-4.472H24.806V81.661H40.445Zm0-4.144H24.806V77.552H40.445Zm0-4.46H24.806V73.092H40.445Zm0-4.46H24.806V68.632H40.445Zm0-4.144H24.806V64.488H40.445Zm0-4.46H24.806V60.028H40.445Zm0-4.46H24.806V55.556H40.445Zm0-4.155H24.806V51.412H40.445Zm0-4.46H24.806V46.952H40.445Zm0-4.46H24.806V42.456H40.445Zm0-4.144H24.806V38.348H40.445Zm0-4.46H24.806V33.887H40.445Zm0-4.46H24.806V29.415H40.445Zm0-4.143H24.806V25.272H40.445Zm0-4.46H24.806V20.823H40.445Zm0-4.46H24.806V16.363H40.445ZM60.9,105.665H45.223v-1.984H60.9Zm0-4.473H45.223V99.268H60.9Zm0-4.46H45.223V94.76H60.9Zm0-4.144H45.223V90.617H60.9Zm0-4.46H45.223V86.156H60.9Zm0-4.472H45.223v-2H60.9Zm0-4.143H45.223V77.541H60.9Zm0-4.46H45.223V73.08H60.9Zm0-4.46H45.223V68.62H60.9Zm0-4.143H45.223V64.476H60.9Zm0-4.46H45.223V60.016H60.9Zm0-4.46H45.223V55.544H60.9Zm0-4.155H45.223V51.4H60.9Zm0-4.46H45.223V46.94H60.9Zm0-4.46H45.223v-2H60.9Zm0-4.143H45.223V38.336H60.9Zm0-4.46H45.223V33.876H60.9Zm0-4.46H45.223V29.4H60.9Zm0-4.143H45.223V25.26H60.9Zm0-4.46H45.223V20.811H60.9Zm0-4.46H45.223V16.351H60.9Z" fill="#392e80"/>
              </g>
              <path id="Shape-5" data-name="Shape" d="M175.452,85.182V78.468h-9.5v2.265H141.861V78.468h-9.48v6.714H125.19v88.034h57.466V85.182ZM142.69,169.507H128.736v-1.761H142.69Zm0-3.979H128.736v-1.761H142.69Zm0-3.979H128.736v-1.761H142.69Zm0-3.7H128.736v-1.76H142.69Zm0-3.979H128.736v-1.784H142.69Zm0-3.979H128.736v-1.761H142.69Zm0-3.7H128.736v-1.761H142.69Zm0-3.98H128.736v-1.76H142.69Zm0-3.979H128.736v-1.76H142.69Zm0-3.7H128.736v-1.761H142.69Zm0-3.979H128.736V128.8H142.69Zm0-3.979H128.736v-1.761H142.69Zm0-3.7H128.736v-1.761H142.69Zm0-3.979H128.736v-1.761H142.69Zm0-3.979H128.736v-1.761H142.69Zm0-3.7H128.736v-1.76H142.69Zm0-3.979H128.736v-1.76H142.69Zm0-3.979H128.736v-1.761H142.69Zm0-3.7H128.736V97.812H142.69Zm0-3.979H128.736V93.833H142.69Zm0-3.979H128.736V89.877H142.69Zm18.229,77.893H146.952v-1.761h13.967Zm0-3.979H146.952v-1.761h13.967Zm0-3.979H146.952v-1.761h13.967Zm0-3.7H146.952v-1.76h13.967Zm0-3.979H146.952v-1.784h13.967Zm0-3.979H146.952v-1.761h13.967Zm0-3.7H146.952v-1.761h13.967Zm0-3.98H146.952v-1.76h13.967Zm0-3.979H146.952v-1.76h13.967Zm0-3.7H146.952v-1.761h13.967Zm0-3.979H146.952V128.8h13.967Zm0-3.979H146.952v-1.761h13.967Zm0-3.7H146.952v-1.761h13.967Zm0-3.979H146.952v-1.761h13.967Zm0-3.979H146.952v-1.761h13.967Zm0-3.7H146.952v-1.76h13.967Zm0-3.979H146.952v-1.76h13.967Zm0-3.979H146.952v-1.761h13.967Zm0-3.7H146.952V97.812h13.967Zm0-3.979H146.952V93.833h13.967Zm0-3.979H146.952V89.877h13.967Zm18.2,77.893H165.156v-1.761H179.1Zm0-3.979H165.156v-1.761H179.1Zm0-3.979H165.156v-1.761H179.1Zm0-3.7H165.156v-1.76H179.1Zm0-3.979H165.156v-1.784H179.1Zm0-3.979H165.156v-1.761H179.1Zm0-3.7H165.156v-1.761H179.1Zm0-3.98H165.156v-1.76H179.1Zm0-3.979H165.156v-1.76H179.1Zm0-3.7H165.156v-1.761H179.1Zm0-3.979H165.156V128.8H179.1Zm0-3.979H165.156v-1.761H179.1Zm0-3.7H165.156v-1.761H179.1Zm0-3.979H165.156v-1.761H179.1Zm0-3.979H165.156v-1.761H179.1Zm0-3.7H165.156v-1.76H179.1Zm0-3.979H165.156v-1.76H179.1Zm0-3.979H165.156v-1.761H179.1Zm0-3.7H165.156V97.812H179.1Zm0-3.979H165.156V93.833H179.1Zm0-3.979H165.156V89.877H179.1Z" fill="#392e80"/>
              <g id="Group_5" data-name="Group 5" transform="translate(190.537 12.912)">
                <path id="Shape-6" data-name="Shape" d="M41.677,8.275v5.306H9.82V8.263H.329V160.3h50.84V8.275ZM7.457,152.722H4.792V124.645H7.457Zm0-36.259H4.792V88.386H7.457Zm0-36.258H4.792V52.116H7.457Zm0-36.27H4.792V15.858H7.457Zm4.9,108.8H9.695V124.645H12.36Zm0-36.259H9.695V88.386H12.36Zm0-36.258H9.695v-28.1H12.36Zm0-36.27H9.695V15.858H12.36Zm4.9,108.8H14.6v-28.1h2.665Zm0-36.258H14.6v-28.1h2.665Zm0-36.258H14.6V52.116h2.665Zm0-36.27H14.6v-28.1h2.665Zm4.9,108.8H19.5V124.645h2.665Zm0-36.258H19.5V88.386h2.665Zm0-36.259H19.5V52.116h2.665Zm0-36.27H19.5V15.858h2.665Zm4.916,108.8h-2.64V124.645h2.665Zm0-36.259h-2.64V88.386h2.665Zm0-36.258h-2.64V52.116h2.665Zm0-36.27h-2.64V15.858h2.665Zm4.9,108.8H29.319V124.645h2.665Zm0-36.259H29.319V88.386h2.665Zm0-36.258H29.319V52.116h2.665Zm0-36.27H29.319V15.858h2.665Zm4.916,108.8H34.235V124.645H36.9Zm0-36.258H34.235V88.386H36.9Zm0-36.258H34.235V52.116H36.9Zm0-36.27H34.235V15.858H36.9Zm4.9,108.8H39.15V124.645h2.665Zm0-36.258H39.15V88.386h2.665Zm0-36.259H39.15V52.116h2.665Zm0-36.27H39.15V15.858h2.665Zm4.9,108.8H44.053V124.645h2.665Zm0-36.259H44.053V88.386h2.665Zm0-36.258H44.053V52.116h2.665Zm0-36.27H44.053V15.858h2.665Z" fill="#392e80"/>
                <rect id="Rectangle-45" data-name="Rectangle" width="31.857" height="7.688" transform="translate(9.82 0.587)" fill="#392e80"/>
                <rect id="Rectangle-46" data-name="Rectangle" width="31.857" height="5.317" transform="translate(9.82 8.275)" fill="#392e80"/>
              </g>
            </g>
            <g id="Group_7" data-name="Group 7" transform="translate(315 36)">
              <path id="Path-6" data-name="Path" d="M40.034,9.209H9.53L.926,315.471H48.638Z" fill="#392e80" fill-rule="evenodd"/>
              <g id="Path-7" data-name="Path" transform="translate(5.783 8.878)" opacity="0.2">
                <path id="Path_1" data-name="Path 1" d="M10.1.331H6.957L.156,306.593H5.092Z" fill="#7d868c" fill-rule="evenodd"/>
                <path id="Path_2" data-name="Path 2" d="M17.083.331H13.936L11.081,306.593H16Z" fill="#7d868c" fill-rule="evenodd"/>
                <path id="Path_3" data-name="Path 3" d="M24.062.331H20.915l1.079,306.262H26.93Z" fill="#7d868c" fill-rule="evenodd"/>
                <path id="Path_4" data-name="Path 4" d="M31.041.331H27.895l5.025,306.262h4.923Z" fill="#7d868c" fill-rule="evenodd"/>
              </g>
              <path id="Path-8" data-name="Path" d="M41.3,54.432H8.261l-.127,4.781H41.443Z" fill="#7d868c" fill-rule="evenodd" opacity="0.5"/>
              <path id="Path-9" data-name="Path" d="M41.506,61.48H8.07l-.089,3.183H41.6Z" fill="#392e80" fill-rule="evenodd"/>
              <path id="Path-10" data-name="Path" d="M46.138,226.469H3.426l-.178,6.2H46.316Z" fill="#7d868c" fill-rule="evenodd" opacity="0.5"/>
              <path id="Path-11" data-name="Path" d="M44.4,164.578H5.165l-.19,7.024H44.6Z" fill="#7d868c" fill-rule="evenodd" opacity="0.5"/>
              <path id="Path-12" data-name="Path" d="M42.712,104.366H6.865l-.152,5.392H42.864Z" fill="#7d868c" fill-rule="evenodd" opacity="0.5"/>
              <path id="Path-13" data-name="Path" d="M40.656,31.281H8.908l-.1,3.994H40.77Z" fill="#7d868c" fill-rule="evenodd" opacity="0.5"/>
              <path id="Path-14" data-name="Path" d="M40.034,9.209H9.53l-.571,20.58h31.66Z" fill="#e073aa" fill-rule="evenodd"/>
              <path id="Path-15" data-name="Path" d="M40.034,9.209H9.53L9.453,12H40.111Z" fill="#7d868c" fill-rule="evenodd" opacity="0.5"/>
              <rect id="Rectangle-47" data-name="Rectangle" width="40.314" height="5.591" transform="translate(4.632 3.618)" fill="#bf3c79"/>
              <rect id="Rectangle-48" data-name="Rectangle" width="29.426" height="3.618" transform="translate(10.075)" fill="#bf3c79"/>
              <rect id="Rectangle-49" data-name="Rectangle" width="40.314" height="9.103" transform="translate(4.632 48.383)" fill="#bf3c79"/>
              <rect id="Rectangle-50" data-name="Rectangle" width="40.314" height="5.732" transform="translate(4.632 50.063)" fill="#bf3c79"/>
              <rect id="Rectangle-51" data-name="Rectangle" width="34.121" height="4.464" transform="translate(7.728 27.557)" fill="#bf3c79"/>
              <g id="Rectangle-52" data-name="Rectangle" transform="translate(3.245 97.495)">
                <rect id="Rectangle_1" data-name="Rectangle 1" width="42.687" height="9.103" transform="translate(0.194 0.305)" fill="#bf3c79"/>
                <rect id="Rectangle_2" data-name="Rectangle 2" width="42.687" height="6.132" transform="translate(0.194 1.797)" fill="#bf3c79"/>
              </g>
              <g id="Rectangle-53" data-name="Rectangle" transform="translate(1.269 158.056)">
                <rect id="Rectangle_3" data-name="Rectangle 3" width="46.189" height="9.103" transform="translate(0.419 0.308)" fill="#bf3c79"/>
                <rect id="Rectangle_4" data-name="Rectangle 4" width="46.189" height="5.944" transform="translate(0.419 1.893)" fill="#bf3c79"/>
              </g>
              <g id="Rectangle-54" data-name="Rectangle" transform="translate(0 218.482)">
                <rect id="Rectangle_5" data-name="Rectangle 5" width="49.412" height="9.738" transform="translate(0.076 0.129)" fill="#bf3c79"/>
                <rect id="Rectangle_6" data-name="Rectangle 6" width="49.412" height="5.967" transform="translate(0.076 2.02)" fill="#bf3c79"/>
              </g>
              <g id="Path-16" data-name="Path" transform="translate(10.858 12.921)">
                <path id="Path_5" data-name="Path 5" d="M2.034.47A1.763,1.763,0,0,0,.207,2.161V5.756H3.874V2.173A1.629,1.629,0,0,0,3.339.965a1.905,1.905,0,0,0-1.3-.5Z" fill="#bf3c79" fill-rule="evenodd"/>
                <path id="Path_6" data-name="Path 6" d="M7.985.47A1.763,1.763,0,0,0,6.158,2.161V5.756H9.825V2.173A1.63,1.63,0,0,0,9.29.965,1.905,1.905,0,0,0,7.985.47Z" fill="#bf3c79" fill-rule="evenodd"/>
                <path id="Path_7" data-name="Path 7" d="M13.924.47A1.763,1.763,0,0,0,12.1,2.161V5.756h3.693V2.173A1.631,1.631,0,0,0,15.245.957,1.908,1.908,0,0,0,13.924.47Z" fill="#bf3c79" fill-rule="evenodd"/>
                <path id="Path_8" data-name="Path 8" d="M19.875.47a1.763,1.763,0,0,0-1.827,1.692V5.756h3.667V2.173A1.63,1.63,0,0,0,21.18.965a1.905,1.905,0,0,0-1.3-.5Z" fill="#bf3c79" fill-rule="evenodd"/>
                <path id="Path_9" data-name="Path 9" d="M25.813.47a1.763,1.763,0,0,0-1.827,1.692V5.756h3.667V2.173A1.629,1.629,0,0,0,27.118.965a1.905,1.905,0,0,0-1.3-.5Z" fill="#bf3c79" fill-rule="evenodd"/>
              </g>
            </g>
            <g id="Group_43" data-name="Group 43" transform="translate(4 218)">
              <path id="Path-17" data-name="Path" d="M10.846,51.268v80.121H90.551c0-24.842,3.122-28.391,13.943-32.91,10.82,4.519,13.942,8.021,13.942,32.91H198.1V51.268Z" fill="#392e80" fill-rule="evenodd"/>
              <rect id="Rectangle-55" data-name="Rectangle" width="130.034" height="1.987" transform="translate(39.483 55.113)" fill="#7d868c" opacity="0.3"/>
              <rect id="Rectangle-56" data-name="Rectangle" width="187.322" height="2.792" transform="translate(10.846 51.268)" fill="#7d868c" opacity="0.3"/>
              <rect id="Rectangle-57" data-name="Rectangle" width="23.434" height="1.266" transform="translate(41.752 108.156)" fill="#7d868c" opacity="0.4"/>
              <rect id="Rectangle-58" data-name="Rectangle" width="23.434" height="1.266" transform="translate(41.752 83.704)" fill="#7d868c" opacity="0.4"/>
              <rect id="Rectangle-59" data-name="Rectangle" width="23.434" height="1.266" transform="translate(143.826 83.704)" fill="#7d868c" opacity="0.4"/>
              <rect id="Rectangle-60" data-name="Rectangle" width="23.434" height="1.266" transform="translate(143.826 108.156)" fill="#7d868c" opacity="0.4"/>
              <path id="Path-18" data-name="Path" d="M82.389,86.425v44.952h8.175c0-24.842,3.122-28.391,13.942-32.91,10.821,4.519,13.943,8.021,13.943,32.91h8.187V86.425Z" fill="#392e80" fill-rule="evenodd"/>
              <path id="Path-19" data-name="Path" d="M104.506,89.11c-15.484,7.038-19.9,3.478-19.9,42.279h5.956c0-24.842,3.122-28.391,13.942-32.91,10.821,4.519,13.943,8.021,13.943,32.91H124.4C124.4,92.588,119.954,96.149,104.506,89.11Z" fill="#7962d6" fill-rule="evenodd"/>
              <path id="Path-20" data-name="Path" d="M104.506,89.11c-15.484,7.038-19.9,3.478-19.9,42.279h0c.251-35.382,4.877-32.224,19.886-39.037,15.046,6.837,19.635,3.679,19.886,39.037h0C124.4,92.588,119.954,96.149,104.506,89.11Z" fill="#7d868c" fill-rule="evenodd" opacity="0.4"/>
              <g id="Group_13" data-name="Group 13" transform="translate(40.823 55.074)">
                <g id="Group_8" data-name="Group 8" transform="translate(52.661 2.89)">
                  <path id="Path-21" data-name="Path" d="M19.963,6.057h0a1.855,1.855,0,0,0-1.994-.426,1.577,1.577,0,0,0,0-.379,1.692,1.692,0,0,0-1.124-1.618,1.867,1.867,0,0,0-2,.435,1.576,1.576,0,0,0,.1-.544A1.755,1.755,0,0,0,13.2,1.857h-.351A20.4,20.4,0,0,0,11.023.544,20.469,20.469,0,0,0,9.192,1.857H8.841a1.757,1.757,0,0,0-1.806,1.7,1.572,1.572,0,0,0,.1.544,1.868,1.868,0,0,0-2-.435A1.692,1.692,0,0,0,4.014,5.288a1.574,1.574,0,0,0,0,.379,1.855,1.855,0,0,0-1.994.426h0A4.753,4.753,0,0,0,.554,9.18V21.2H21.517V9.18a4.764,4.764,0,0,0-1.555-3.123Z" fill="#adb2b5" fill-rule="evenodd"/>
                  <path id="Path-22" data-name="Path" d="M19.963,6.057h0a1.855,1.855,0,0,0-1.994-.426,1.577,1.577,0,0,0,0-.379,1.692,1.692,0,0,0-1.124-1.618,1.867,1.867,0,0,0-2,.435,1.576,1.576,0,0,0,.1-.544A1.755,1.755,0,0,0,13.2,1.857h-.351A20.4,20.4,0,0,0,11.023.544,20.469,20.469,0,0,0,9.192,1.857H8.841A1.814,1.814,0,0,0,7.3,2.709a1.858,1.858,0,0,1,.965-.272h.351a20.456,20.456,0,0,1,1.831-1.313,20.425,20.425,0,0,1,1.831,1.313h.351a1.816,1.816,0,0,1,1.468.707,1.6,1.6,0,0,1,.224,1.541,1.87,1.87,0,0,1,2.171-.361,1.659,1.659,0,0,1,.9,1.9,1.859,1.859,0,0,1,1.969.367h0a4.764,4.764,0,0,1,1.555,3.123V21.151H21.5V9.18A4.763,4.763,0,0,0,19.963,6.057Z" fill="#7d868c" fill-rule="evenodd" opacity="0.3"/>
                  <rect id="Rectangle-61" data-name="Rectangle" width="21.002" height="2.472" transform="translate(0.516 18.726)" fill="#e2c5ae"/>
                  <rect id="Rectangle-62" data-name="Rectangle" width="21.002" height="1" transform="translate(0.516 18.726)" fill="#7d868c" opacity="0.3"/>
                  <rect id="Rectangle-63" data-name="Rectangle" width="21.002" height="1" transform="translate(0.516 18.028)" fill="#b08b80"/>
                  <rect id="Rectangle-64" data-name="Rectangle" width="7.059" height="1" transform="translate(7.487 5.536)" fill="#b08b80"/>
                  <rect id="Rectangle-65" data-name="Rectangle" width="21.002" height="1" transform="translate(0.516 9.18)" fill="#b08b80"/>
                  <path id="Path-23" data-name="Path" d="M7.036,3.549a1.572,1.572,0,0,0,.1.544,1.828,1.828,0,0,0-.389-.3V21.186H7.5V2.425A1.628,1.628,0,0,0,7.036,3.549Z" fill="#b08b80" fill-rule="evenodd"/>
                  <path id="Path-24" data-name="Path" d="M15.01,3.549a1.571,1.571,0,0,1-.1.544,1.829,1.829,0,0,1,.389-.3V21.186h-.752V2.425A1.628,1.628,0,0,1,15.01,3.549Z" fill="#b08b80" fill-rule="evenodd"/>
                </g>
                <g id="Rectangle-66" data-name="Rectangle" transform="translate(49.453)">
                  <rect id="Rectangle_7" data-name="Rectangle 7" width="3.247" height="12.019" transform="translate(0.263 12.069)" fill="#7962d6"/>
                  <rect id="Rectangle_8" data-name="Rectangle 8" width="3.686" height="12.019" transform="translate(0.038 0.039)" fill="#392e80"/>
                  <rect id="Rectangle_9" data-name="Rectangle 9" width="3.686" height="1.029" transform="translate(0.038 12.069)" fill="#aa483d"/>
                </g>
                <g id="Group_9" data-name="Group 9" transform="translate(28.138 2.89)">
                  <path id="Path-25" data-name="Path" d="M19.8,6.057h0A1.855,1.855,0,0,0,17.8,5.631a1.567,1.567,0,0,0,0-.379A1.692,1.692,0,0,0,16.68,3.634a1.868,1.868,0,0,0-2,.435,1.6,1.6,0,0,0,.1-.544A1.755,1.755,0,0,0,13.04,1.857h-.351A20.365,20.365,0,0,0,10.858.544,20.38,20.38,0,0,0,9.028,1.857H8.676a1.757,1.757,0,0,0-1.806,1.7,1.6,1.6,0,0,0,.1.544,1.868,1.868,0,0,0-2-.435A1.692,1.692,0,0,0,3.849,5.288a1.574,1.574,0,0,0,0,.379,1.855,1.855,0,0,0-1.994.426h0A4.764,4.764,0,0,0,.3,9.215V21.234H21.315V9.18A4.758,4.758,0,0,0,19.8,6.057Z" fill="#adb2b5" fill-rule="evenodd"/>
                  <path id="Path-26" data-name="Path" d="M19.8,6.057h0A1.855,1.855,0,0,0,17.8,5.631a1.567,1.567,0,0,0,0-.379A1.692,1.692,0,0,0,16.68,3.634a1.868,1.868,0,0,0-2,.435,1.6,1.6,0,0,0,.1-.544A1.755,1.755,0,0,0,13.04,1.857h-.351A20.365,20.365,0,0,0,10.858.544,20.38,20.38,0,0,0,9.028,1.857H8.676a1.814,1.814,0,0,0-1.542.852A1.858,1.858,0,0,1,8.1,2.437h.351a20.35,20.35,0,0,1,1.831-1.313,20.439,20.439,0,0,1,1.831,1.313h.351a1.816,1.816,0,0,1,1.469.707,1.6,1.6,0,0,1,.224,1.541,1.87,1.87,0,0,1,2.171-.361,1.659,1.659,0,0,1,.9,1.9,1.855,1.855,0,0,1,1.994.426h0a4.764,4.764,0,0,1,1.555,3.123V21.21h.539V9.18A4.758,4.758,0,0,0,19.8,6.057Z" fill="#7d868c" fill-rule="evenodd" opacity="0.3"/>
                  <rect id="Rectangle-67" data-name="Rectangle" width="21.002" height="2.472" transform="translate(0.364 18.726)" fill="#e2c5ae"/>
                  <rect id="Rectangle-68" data-name="Rectangle" width="21.002" height="1" transform="translate(0.364 18.726)" fill="#7d868c" opacity="0.3"/>
                  <rect id="Rectangle-69" data-name="Rectangle" width="21.002" height="1" transform="translate(0.364 18.028)" fill="#b08b80"/>
                  <rect id="Rectangle-70" data-name="Rectangle" width="7.059" height="1" transform="translate(7.335 5.536)" fill="#b08b80"/>
                  <rect id="Rectangle-71" data-name="Rectangle" width="21.002" height="1" transform="translate(0.364 9.18)" fill="#b08b80"/>
                  <path id="Path-27" data-name="Path" d="M6.871,3.549a1.6,1.6,0,0,0,.1.544,1.828,1.828,0,0,0-.389-.3V21.186h.752V2.425a1.628,1.628,0,0,0-.464,1.124Z" fill="#b08b80" fill-rule="evenodd"/>
                  <path id="Path-28" data-name="Path" d="M14.845,3.549a1.6,1.6,0,0,1-.1.544,1.814,1.814,0,0,1,.389-.3V21.186h-.752V2.425A1.629,1.629,0,0,1,14.845,3.549Z" fill="#b08b80" fill-rule="evenodd"/>
                </g>
                <g id="Rectangle-72" data-name="Rectangle" transform="translate(24.376)">
                  <rect id="Rectangle_10" data-name="Rectangle 10" width="3.247" height="12.019" transform="translate(0.652 12.069)" fill="#7962d6"/>
                  <rect id="Rectangle_11" data-name="Rectangle 11" width="3.686" height="12.019" transform="translate(0.426 0.039)" fill="#392e80"/>
                  <rect id="Rectangle_12" data-name="Rectangle 12" width="3.686" height="1.029" transform="translate(0.426 12.069)" fill="#aa483d"/>
                </g>
                <g id="Group_10" data-name="Group 10" transform="translate(3.061 2.89)">
                  <path id="Path-29" data-name="Path" d="M20.187,6.057h0a1.855,1.855,0,0,0-1.994-.426,1.577,1.577,0,0,0,0-.379,1.692,1.692,0,0,0-1.124-1.618,1.868,1.868,0,0,0-2,.435,1.6,1.6,0,0,0,.1-.544,1.754,1.754,0,0,0-1.73-1.668H13.09A20.332,20.332,0,0,0,11.284.58,20.536,20.536,0,0,0,9.416,1.857H9.065a1.757,1.757,0,0,0-1.806,1.7,1.584,1.584,0,0,0,.1.544,1.868,1.868,0,0,0-2-.435A1.692,1.692,0,0,0,4.238,5.288a1.575,1.575,0,0,0,0,.379,1.855,1.855,0,0,0-1.994.426h0A4.764,4.764,0,0,0,.69,9.215V21.234H21.741V9.18a4.764,4.764,0,0,0-1.555-3.123Z" fill="#adb2b5" fill-rule="evenodd"/>
                  <path id="Path-30" data-name="Path" d="M20.187,6.057h0a1.855,1.855,0,0,0-1.994-.426,1.577,1.577,0,0,0,0-.379,1.692,1.692,0,0,0-1.124-1.618,1.868,1.868,0,0,0-2,.435,1.6,1.6,0,0,0,.1-.544,1.754,1.754,0,0,0-1.73-1.668H13.09A20.332,20.332,0,0,0,11.284.58,20.536,20.536,0,0,0,9.416,1.857H9.065a1.814,1.814,0,0,0-1.542.852,1.858,1.858,0,0,1,.965-.272h.351A20.41,20.41,0,0,1,10.67,1.124a20.286,20.286,0,0,1,1.868,1.349h.351a1.816,1.816,0,0,1,1.468.707,1.6,1.6,0,0,1,.224,1.541,1.87,1.87,0,0,1,2.171-.361,1.659,1.659,0,0,1,.9,1.9,1.855,1.855,0,0,1,1.994.426h0A4.764,4.764,0,0,1,21.2,9.807V21.246h.589V9.18a4.772,4.772,0,0,0-1.6-3.123Z" fill="#7d868c" fill-rule="evenodd" opacity="0.3"/>
                  <rect id="Rectangle-73" data-name="Rectangle" width="21.002" height="2.472" transform="translate(0.752 18.726)" fill="#e2c5ae"/>
                  <rect id="Rectangle-74" data-name="Rectangle" width="21.002" height="1" transform="translate(0.752 18.726)" fill="#7d868c" opacity="0.3"/>
                  <rect id="Rectangle-75" data-name="Rectangle" width="21.002" height="1" transform="translate(0.752 18.028)" fill="#b08b80"/>
                  <rect id="Rectangle-76" data-name="Rectangle" width="7.059" height="1" transform="translate(7.724 5.536)" fill="#b08b80"/>
                  <rect id="Rectangle-77" data-name="Rectangle" width="21.002" height="1" transform="translate(0.752 9.18)" fill="#b08b80"/>
                  <path id="Path-31" data-name="Path" d="M7.26,3.549a1.584,1.584,0,0,0,.1.544,1.828,1.828,0,0,0-.389-.3V21.186h.752V2.425A1.628,1.628,0,0,0,7.26,3.549Z" fill="#b08b80" fill-rule="evenodd"/>
                  <path id="Path-32" data-name="Path" d="M15.234,3.549a1.6,1.6,0,0,1-.1.544,1.814,1.814,0,0,1,.389-.3V21.186H14.77V2.425a1.64,1.64,0,0,1,.464,1.124Z" fill="#b08b80" fill-rule="evenodd"/>
                </g>
                <g id="Rectangle-78" data-name="Rectangle">
                  <rect id="Rectangle_13" data-name="Rectangle 13" width="3.247" height="12.019" transform="translate(0.34 12.069)" fill="#7962d6"/>
                  <rect id="Rectangle_14" data-name="Rectangle 14" width="3.686" height="12.019" transform="translate(0.127 0.039)" fill="#392e80"/>
                  <rect id="Rectangle_15" data-name="Rectangle 15" width="3.686" height="1.029" transform="translate(0.127 12.069)" fill="#aa483d"/>
                </g>
                <g id="Rectangle-79" data-name="Rectangle" transform="translate(73.976)">
                  <rect id="Rectangle_16" data-name="Rectangle 16" width="3.247" height="12.019" transform="translate(0.428 12.069)" fill="#7962d6"/>
                  <rect id="Rectangle_17" data-name="Rectangle 17" width="3.686" height="12.019" transform="translate(0.202 0.039)" fill="#392e80"/>
                  <rect id="Rectangle_18" data-name="Rectangle 18" width="3.686" height="1.029" transform="translate(0.202 12.069)" fill="#aa483d"/>
                </g>
                <g id="Group_11" data-name="Group 11" transform="translate(77.737 2.89)">
                  <path id="Path-33" data-name="Path" d="M19.562,6.057h0a1.855,1.855,0,0,0-1.993-.426,1.577,1.577,0,0,0,0-.379,1.692,1.692,0,0,0-1.124-1.618,1.868,1.868,0,0,0-2,.435,1.6,1.6,0,0,0-.224-1.541,1.816,1.816,0,0,0-1.468-.707H12.4A20.464,20.464,0,0,0,10.572.509,20.392,20.392,0,0,0,8.741,1.822H8.39a1.757,1.757,0,0,0-1.806,1.7,1.572,1.572,0,0,0,.1.544,1.87,1.87,0,0,0-2.171-.361,1.659,1.659,0,0,0-.9,1.9,1.855,1.855,0,0,0-1.994.426h0A4.764,4.764,0,0,0,.065,9.156V21.174h21V9.18a4.756,4.756,0,0,0-1.5-3.123Z" fill="#adb2b5" fill-rule="evenodd"/>
                  <path id="Path-34" data-name="Path" d="M19.562,6.057h0a1.855,1.855,0,0,0-1.993-.426,1.577,1.577,0,0,0,0-.379,1.692,1.692,0,0,0-1.124-1.618,1.868,1.868,0,0,0-2,.435,1.6,1.6,0,0,0-.224-1.541,1.816,1.816,0,0,0-1.468-.707H12.4A20.464,20.464,0,0,0,10.572.509,20.392,20.392,0,0,0,8.741,1.822H8.39a1.814,1.814,0,0,0-1.542.852A1.858,1.858,0,0,1,7.813,2.4h.351A20.254,20.254,0,0,1,9.995,1.088,20.533,20.533,0,0,1,11.825,2.4h.351a1.757,1.757,0,0,1,1.806,1.7,1.6,1.6,0,0,1-.1.544,1.87,1.87,0,0,1,2.171-.361,1.659,1.659,0,0,1,.9,1.9,1.855,1.855,0,0,1,1.994.426h0A4.764,4.764,0,0,1,20.5,9.736V21.174h.589V9.18a4.76,4.76,0,0,0-1.53-3.123Z" fill="#7d868c" fill-rule="evenodd" opacity="0.3"/>
                  <rect id="Rectangle-80" data-name="Rectangle" width="21.002" height="2.472" transform="translate(0.127 18.726)" fill="#e2c5ae"/>
                  <rect id="Rectangle-81" data-name="Rectangle" width="21.002" height="1" transform="translate(0.127 18.726)" fill="#7d868c" opacity="0.3"/>
                  <rect id="Rectangle-82" data-name="Rectangle" width="21.002" height="1" transform="translate(0.127 18.028)" fill="#b08b80"/>
                  <rect id="Rectangle-83" data-name="Rectangle" width="7.059" height="1" transform="translate(7.098 5.536)" fill="#b08b80"/>
                  <rect id="Rectangle-84" data-name="Rectangle" width="21.002" height="1" transform="translate(0.127 9.18)" fill="#b08b80"/>
                  <path id="Path-35" data-name="Path" d="M6.647,3.549a1.572,1.572,0,0,0,.1.544,1.828,1.828,0,0,0-.389-.3V21.186h.752V2.425a1.628,1.628,0,0,0-.464,1.124Z" fill="#b08b80" fill-rule="evenodd"/>
                  <path id="Path-36" data-name="Path" d="M14.609,3.549a1.606,1.606,0,0,1-.1.544,1.817,1.817,0,0,1,.389-.3V21.186h-.752V2.425a1.628,1.628,0,0,1,.464,1.124Z" fill="#b08b80" fill-rule="evenodd"/>
                </g>
                <g id="Rectangle-85" data-name="Rectangle" transform="translate(98.352)">
                  <rect id="Rectangle_19" data-name="Rectangle 19" width="3.247" height="12.019" transform="translate(0.727 12.069)" fill="#7962d6"/>
                  <rect id="Rectangle_20" data-name="Rectangle 20" width="3.686" height="12.019" transform="translate(0.514 0.039)" fill="#392e80"/>
                  <rect id="Rectangle_21" data-name="Rectangle 21" width="3.686" height="1.029" transform="translate(0.514 12.069)" fill="#aa483d"/>
                </g>
                <g id="Group_12" data-name="Group 12" transform="translate(102.113 2.89)">
                  <path id="Path-37" data-name="Path" d="M19.873,6.057h0a1.855,1.855,0,0,0-1.993-.426,1.577,1.577,0,0,0,0-.379,1.692,1.692,0,0,0-1.124-1.618,1.868,1.868,0,0,0-2,.435,1.591,1.591,0,0,0,.1-.544,1.644,1.644,0,0,0-.525-1.208,1.849,1.849,0,0,0-1.28-.5H12.7A20.373,20.373,0,0,0,10.871.509,20.338,20.338,0,0,0,9.04,1.822H8.689a1.757,1.757,0,0,0-1.806,1.7,1.584,1.584,0,0,0,.1.544,1.868,1.868,0,0,0-2-.435A1.692,1.692,0,0,0,3.862,5.252a1.574,1.574,0,0,0,0,.379,1.855,1.855,0,0,0-1.994.426h0A4.764,4.764,0,0,0,.313,9.18V21.2h21V9.18a4.746,4.746,0,0,0-1.442-3.123Z" fill="#adb2b5" fill-rule="evenodd"/>
                  <path id="Path-38" data-name="Path" d="M19.873,6.057h0a1.855,1.855,0,0,0-1.993-.426,1.577,1.577,0,0,0,0-.379,1.692,1.692,0,0,0-1.124-1.618,1.868,1.868,0,0,0-2,.435,1.591,1.591,0,0,0,.1-.544,1.644,1.644,0,0,0-.525-1.208,1.849,1.849,0,0,0-1.28-.5H12.7A20.373,20.373,0,0,0,10.871.509,20.338,20.338,0,0,0,9.04,1.822H8.689a1.814,1.814,0,0,0-1.542.852A1.858,1.858,0,0,1,8.112,2.4h.351a20.43,20.43,0,0,1,1.831-1.313A20.534,20.534,0,0,1,12.125,2.4h.351a1.816,1.816,0,0,1,1.468.707,1.6,1.6,0,0,1,.224,1.541,1.868,1.868,0,0,1,2-.435A1.692,1.692,0,0,1,17.29,5.832a1.63,1.63,0,0,1,0,.379,1.855,1.855,0,0,1,1.994.426h0a4.764,4.764,0,0,1,1.555,3.123V21.2h.589V9.18a4.764,4.764,0,0,0-1.555-3.123Z" fill="#7d868c" fill-rule="evenodd" opacity="0.3"/>
                  <rect id="Rectangle-86" data-name="Rectangle" width="21.002" height="2.472" transform="translate(0.439 18.726)" fill="#e2c5ae"/>
                  <rect id="Rectangle-87" data-name="Rectangle" width="21.002" height="1" transform="translate(0.439 18.726)" fill="#7d868c" opacity="0.3"/>
                  <rect id="Rectangle-88" data-name="Rectangle" width="21.002" height="1" transform="translate(0.439 18.028)" fill="#b08b80"/>
                  <rect id="Rectangle-89" data-name="Rectangle" width="7.059" height="1" transform="translate(7.41 5.536)" fill="#b08b80"/>
                  <rect id="Rectangle-90" data-name="Rectangle" width="21.002" height="1" transform="translate(0.439 9.18)" fill="#b08b80"/>
                  <path id="Path-39" data-name="Path" d="M6.946,3.549a1.583,1.583,0,0,0,.1.544,1.816,1.816,0,0,0-.389-.3V21.186H7.41V2.425a1.64,1.64,0,0,0-.464,1.124Z" fill="#b08b80" fill-rule="evenodd"/>
                  <path id="Path-40" data-name="Path" d="M14.92,3.549a1.591,1.591,0,0,1-.1.544,1.829,1.829,0,0,1,.389-.3V21.186h-.752V2.425A1.628,1.628,0,0,1,14.92,3.549Z" fill="#b08b80" fill-rule="evenodd"/>
                </g>
                <g id="Rectangle-91" data-name="Rectangle" transform="translate(123.429)">
                  <rect id="Rectangle_22" data-name="Rectangle 22" width="3.247" height="12.019" transform="translate(0.339 12.069)" fill="#7962d6"/>
                  <rect id="Rectangle_23" data-name="Rectangle 23" width="3.686" height="12.019" transform="translate(0.113 0.039)" fill="#392e80"/>
                  <rect id="Rectangle_24" data-name="Rectangle 24" width="3.686" height="1.029" transform="translate(0.113 12.069)" fill="#aa483d"/>
                </g>
              </g>
              <g id="Group_20" data-name="Group 20" transform="translate(41.376 85.83)">
                <g id="Group_15" data-name="Group 15">
                  <path id="Path-41" data-name="Path" d="M23.823,19.794c0-18.7-2.621-15.2-11.711-19.341C3.022,4.593.4,1.092.4,19.794Z" fill="#392e80" fill-rule="evenodd"/>
                  <path id="Path-42" data-name="Path" d="M12.087.441C3,4.581.376,1.08.376,19.782H1.63C1.743,4.238,4.138,7.148,12.15,3.517c7.974,3.632,10.407.733,10.52,16.265h1.254C23.823,1.092,21.177,4.581,12.087.441Z" fill="#7d868c" fill-rule="evenodd" opacity="0.4"/>
                  <g id="Group_14" data-name="Group 14" transform="translate(8.223 8.804)">
                    <rect id="Rectangle-92" data-name="Rectangle" width="7.573" height="10.528" transform="translate(0.077 0.461)" fill="#5c6670"/>
                    <path id="Path-43" data-name="Path" d="M.077.461v1.55H6.158V10.99H7.65V.461Z" fill="#7d868c" fill-rule="evenodd" opacity="0.4"/>
                  </g>
                </g>
                <g id="Group_19" data-name="Group 19" transform="translate(0 13.536)">
                  <rect id="Rectangle-93" data-name="Rectangle" width="23.384" height="3.289" transform="translate(0.376 2.969)" fill="#392e80"/>
                  <rect id="Rectangle-94" data-name="Rectangle" width="23.384" height="1" transform="translate(0.376 2.969)" fill="#7d868c" opacity="0.3"/>
                  <rect id="Rectangle-95" data-name="Rectangle" width="1" height="3.289" transform="translate(10.77 2.969)" fill="#7d868c" opacity="0.3"/>
                  <rect id="Rectangle-96" data-name="Rectangle" width="1" height="3.289" transform="translate(3.699 2.969)" fill="#7d868c" opacity="0.3"/>
                  <rect id="Rectangle-97" data-name="Rectangle" width="1" height="3.289" transform="translate(17.905 2.969)" fill="#7d868c" opacity="0.3"/>
                  <rect id="Rectangle-98" data-name="Rectangle" width="1" height="3.289" transform="translate(4.526 2.969)" fill="#b05347"/>
                  <rect id="Rectangle-99" data-name="Rectangle" width="23.384" height="1" transform="translate(0.376 2.106)" fill="#b05347"/>
                  <rect id="Rectangle-100" data-name="Rectangle" width="1" height="3.289" transform="translate(18.745 2.969)" fill="#b05347"/>
                  <rect id="Rectangle-101" data-name="Rectangle" width="1" height="3.289" transform="translate(11.61 2.969)" fill="#b05347"/>
                  <g id="Group_16" data-name="Group 16" transform="translate(3.761)">
                    <circle id="Oval" cx="1" cy="1" r="1" transform="translate(0.216 0.254)" fill="#b05347"/>
                    <path id="Path-44" data-name="Path" d="M2.132,1.242a.711.711,0,0,1-.589.319.719.719,0,0,1-.708-.417A.649.649,0,0,1,1.028.379a.866.866,0,0,0-.715.816.9.9,0,0,0,.909.763.9.9,0,0,0,.909-.763Z" fill="#7d868c" fill-rule="evenodd" opacity="0.3"/>
                  </g>
                  <g id="Group_17" data-name="Group 17" transform="translate(10.731)">
                    <circle id="Oval-2" data-name="Oval" cx="1" cy="1" r="1" transform="translate(0.331 0.254)" fill="#b05347"/>
                    <path id="Path-45" data-name="Path" d="M2.246,1.242a.711.711,0,0,1-.589.319.719.719,0,0,1-.708-.417A.649.649,0,0,1,1.143.379a.866.866,0,0,0-.715.816.9.9,0,0,0,.909.763.9.9,0,0,0,.909-.763Z" fill="#7d868c" fill-rule="evenodd" opacity="0.3"/>
                  </g>
                  <g id="Group_18" data-name="Group 18" transform="translate(17.554)">
                    <circle id="Oval-3" data-name="Oval" cx="1" cy="1" r="1" transform="translate(0.592 0.254)" fill="#b05347"/>
                    <path id="Path-46" data-name="Path" d="M2.508,1.242a.711.711,0,0,1-.589.319.719.719,0,0,1-.708-.417A.649.649,0,0,1,1.4.379a.866.866,0,0,0-.715.816.9.9,0,0,0,.909.763.9.9,0,0,0,.909-.763Z" fill="#7d868c" fill-rule="evenodd" opacity="0.3"/>
                  </g>
                </g>
              </g>
              <g id="Group_22" data-name="Group 22" transform="translate(41.376 111.855)">
                <path id="Path-47" data-name="Path" d="M23.823,19.534c0-18.7-2.621-15.2-11.711-19.341C3.022,4.333.4.831.4,19.534Z" fill="#392e80" fill-rule="evenodd"/>
                <path id="Path-48" data-name="Path" d="M12.087.193C3,4.333.376.831.376,19.534H1.63C1.743,3.99,4.138,6.9,12.15,3.268,20.124,6.9,22.556,4,22.669,19.534h1.254C23.823.831,21.177,4.333,12.087.193Z" fill="#7d868c" fill-rule="evenodd" opacity="0.4"/>
                <g id="Group_21" data-name="Group 21" transform="translate(8.223 8.804)">
                  <rect id="Rectangle-102" data-name="Rectangle" width="7.573" height="10.528" transform="translate(0.077 0.201)" fill="#5c6670"/>
                  <path id="Path-49" data-name="Path" d="M.077.2v1.55H6.158v8.978H7.65V.2Z" fill="#7d868c" fill-rule="evenodd" opacity="0.4"/>
                </g>
              </g>
              <g id="Path-50" data-name="Path" transform="translate(17 115.928)">
                <path id="Path_10" data-name="Path 10" d="M5.932.3C1.343,2.39.027,3.939.027,15.461H11.838C11.838,3.939,10.521,2.39,5.932.3Z" fill="#5c6670" fill-rule="evenodd"/>
                <path id="Path_11" data-name="Path 11" d="M5.932.3C3.738,1.289,2.3,2.177,1.381,4.081A10.288,10.288,0,0,1,4.992,1.715c4.388,2,5.793,3.549,5.906,13.734h.94C11.838,3.939,10.521,2.39,5.932.3Z" fill="#7d868c" fill-rule="evenodd" opacity="0.4"/>
              </g>
              <g id="Rectangle-103" data-name="Rectangle" transform="translate(10.731 78.733)">
                <rect id="Rectangle_25" data-name="Rectangle 25" width="187.322" height="2.011" transform="translate(0.102 0.429)" fill="#7962d6"/>
                <rect id="Rectangle_26" data-name="Rectangle 26" width="187.322" height="2.011" transform="translate(0.102 2.44)" fill="#7d868c" opacity="0.4"/>
              </g>
              <g id="Rectangle-104" data-name="Rectangle" transform="translate(18.807 69.269)">
                <rect id="Rectangle_27" data-name="Rectangle 27" width="7.937" height="9.381" transform="translate(0.15 0.512)" fill="#adb2b5"/>
                <g id="Group_23" data-name="Group 23" transform="translate(0 5.256)">
                  <rect id="Rectangle_28" data-name="Rectangle 28" width="7.937" height="4.318" transform="translate(0.15 0.319)" fill="#e2c5ae"/>
                  <rect id="Rectangle_29" data-name="Rectangle 29" width="7.937" height="1" transform="translate(0.15 0.319)" fill="#7d868c" opacity="0.3"/>
                </g>
                <rect id="Rectangle_30" data-name="Rectangle 30" width="7.937" height="1" transform="translate(0.15 4.912)" fill="#b08b80"/>
                <rect id="Rectangle_31" data-name="Rectangle 31" width="1" height="9.381" transform="translate(3.749 0.512)" fill="#b08b80"/>
              </g>
              <rect id="Rectangle-105" data-name="Rectangle" width="130.034" height="3.856" transform="translate(39.483 51.268)" fill="#7962d6"/>
              <path id="Path-51" data-name="Path" d="M197.189,44.537H11.811L0,51.268H209Z" fill="#d8d2c4" fill-rule="evenodd"/>
              <g id="Rectangle-106" data-name="Rectangle" transform="translate(11.284 34.964)">
                <rect id="Rectangle_32" data-name="Rectangle 32" width="185.366" height="9.322" transform="translate(0.527 0.264)" fill="#d8d2c4"/>
                <rect id="Rectangle_33" data-name="Rectangle 33" width="185.366" height="3.466" transform="translate(0.527 6.107)" fill="#7d868c" opacity="0.3"/>
              </g>
              <rect id="Rectangle-107" data-name="Rectangle" width="23.434" height="2.531" transform="translate(41.752 105.624)" fill="#7962d6"/>
              <rect id="Rectangle-108" data-name="Rectangle" width="23.434" height="2.531" transform="translate(41.752 81.173)" fill="#7962d6"/>
              <g id="Group_30" data-name="Group 30" transform="translate(143.637 85.83)">
                <g id="Group_25" data-name="Group 25">
                  <path id="Path-52" data-name="Path" d="M.19,19.794C.19,1.092,2.81,4.593,11.9.453c9.09,4.14,11.711.639,11.711,19.341Z" fill="#392e80" fill-rule="evenodd"/>
                  <path id="Path-53" data-name="Path" d="M11.9.441c9.09,4.14,11.711.639,11.711,19.341H22.358C22.245,4.238,19.85,7.148,11.838,3.517,3.864,7.148,1.431,4.25,1.318,19.782H.065C.19,1.092,2.81,4.581,11.9.441Z" fill="#7d868c" fill-rule="evenodd" opacity="0.4"/>
                  <g id="Group_24" data-name="Group 24" transform="translate(8.076 8.804)">
                    <rect id="Rectangle-109" data-name="Rectangle" width="7.573" height="10.528" transform="translate(0.038 0.461)" fill="#5c6670"/>
                    <path id="Path-54" data-name="Path" d="M7.611.461v1.55H1.53V10.99H.038V.461Z" fill="#7d868c" fill-rule="evenodd" opacity="0.4"/>
                  </g>
                </g>
                <g id="Group_29" data-name="Group 29" transform="translate(0 13.536)">
                  <rect id="Rectangle-110" data-name="Rectangle" width="23.384" height="3.289" transform="translate(0.24 2.969)" fill="#392e80"/>
                  <rect id="Rectangle-111" data-name="Rectangle" width="23.384" height="1" transform="translate(0.24 2.969)" fill="#7d868c" opacity="0.3"/>
                  <rect id="Rectangle-112" data-name="Rectangle" width="1" height="3.289" transform="translate(12.39 2.969)" fill="#7d868c" opacity="0.3"/>
                  <rect id="Rectangle-113" data-name="Rectangle" width="1" height="3.289" transform="translate(19.461 2.969)" fill="#7d868c" opacity="0.3"/>
                  <rect id="Rectangle-114" data-name="Rectangle" width="1" height="3.289" transform="translate(5.255 2.969)" fill="#7d868c" opacity="0.3"/>
                  <rect id="Rectangle-115" data-name="Rectangle" width="1" height="3.289" transform="translate(18.559 2.969)" fill="#b05347"/>
                  <rect id="Rectangle-116" data-name="Rectangle" width="23.384" height="1" transform="translate(0.24 2.106)" fill="#b05347"/>
                  <rect id="Rectangle-117" data-name="Rectangle" width="1" height="3.289" transform="translate(4.34 2.969)" fill="#b05347"/>
                  <rect id="Rectangle-118" data-name="Rectangle" width="1" height="3.289" transform="translate(11.474 2.969)" fill="#b05347"/>
                  <g id="Group_26" data-name="Group 26" transform="translate(17.554)">
                    <circle id="Oval-4" data-name="Oval" cx="1" cy="1" r="1" transform="translate(0.456 0.254)" fill="#b05347"/>
                    <path id="Path-55" data-name="Path" d="M.554,1.242a.711.711,0,0,0,.589.319.719.719,0,0,0,.708-.417A.649.649,0,0,0,1.657.379a.866.866,0,0,1,.715.816.9.9,0,0,1-.909.763.9.9,0,0,1-.909-.763Z" fill="#7d868c" fill-rule="evenodd" opacity="0.3"/>
                  </g>
                  <g id="Group_27" data-name="Group 27" transform="translate(10.584)">
                    <circle id="Oval-5" data-name="Oval" cx="1" cy="1" r="1" transform="translate(0.342 0.254)" fill="#b05347"/>
                    <path id="Path-56" data-name="Path" d="M.439,1.242a.711.711,0,0,0,.589.319.719.719,0,0,0,.708-.417A.649.649,0,0,0,1.542.379a.866.866,0,0,1,.715.816.9.9,0,0,1-.909.763.9.9,0,0,1-.909-.763Z" fill="#7d868c" fill-rule="evenodd" opacity="0.3"/>
                  </g>
                  <g id="Group_28" data-name="Group 28" transform="translate(3.761)">
                    <circle id="Oval-6" data-name="Oval" cx="1" cy="1" r="1" transform="translate(0.093 0.254)" fill="#b05347"/>
                    <path id="Path-57" data-name="Path" d="M.177,1.242a.711.711,0,0,0,.589.319.719.719,0,0,0,.708-.417A.649.649,0,0,0,1.281.379.866.866,0,0,1,2,1.195a.9.9,0,0,1-.909.763.9.9,0,0,1-.909-.763Z" fill="#7d868c" fill-rule="evenodd" opacity="0.3"/>
                  </g>
                </g>
              </g>
              <g id="Group_32" data-name="Group 32" transform="translate(143.637 111.855)">
                <path id="Path-58" data-name="Path" d="M.19,19.534C.19.831,2.81,4.333,11.9.193c9.09,4.14,11.711.639,11.711,19.341Z" fill="#392e80" fill-rule="evenodd"/>
                <path id="Path-59" data-name="Path" d="M11.9.193c9.09,4.14,11.711.639,11.711,19.341H22.358C22.245,3.99,19.85,6.9,11.838,3.268,3.864,6.9,1.431,4,1.318,19.534H.065C.19.831,2.81,4.333,11.9.193Z" fill="#7d868c" fill-rule="evenodd" opacity="0.4"/>
                <g id="Group_31" data-name="Group 31" transform="translate(8.076 8.804)">
                  <rect id="Rectangle-119" data-name="Rectangle" width="7.573" height="10.528" transform="translate(0.038 0.201)" fill="#5c6670"/>
                  <path id="Path-60" data-name="Path" d="M7.611.2v1.55H1.53v8.978H.038V.2Z" fill="#7d868c" fill-rule="evenodd" opacity="0.4"/>
                </g>
              </g>
              <g id="Path-61" data-name="Path" transform="translate(179.997 115.928)">
                <path id="Path_12" data-name="Path 12" d="M6.07.3c4.589,2.094,5.906,3.643,5.906,15.165H.152C.165,3.939,1.481,2.39,6.07.3Z" fill="#5c6670" fill-rule="evenodd"/>
                <path id="Path_13" data-name="Path 13" d="M6.07.3c2.194.994,3.636,1.881,4.551,3.785A10.288,10.288,0,0,0,7.011,1.715c-4.388,2-5.793,3.549-5.906,13.734H.152C.165,3.939,1.481,2.39,6.07.3Z" fill="#7d868c" fill-rule="evenodd" opacity="0.4"/>
              </g>
              <g id="Rectangle-120" data-name="Rectangle" transform="translate(181.805 69.269)">
                <rect id="Rectangle_34" data-name="Rectangle 34" width="7.937" height="9.381" transform="translate(0.301 0.512)" fill="#adb2b5"/>
                <g id="Group_33" data-name="Group 33" transform="translate(0 5.256)">
                  <rect id="Rectangle_35" data-name="Rectangle 35" width="7.937" height="4.318" transform="translate(0.301 0.319)" fill="#e2c5ae"/>
                  <rect id="Rectangle_36" data-name="Rectangle 36" width="7.937" height="1" transform="translate(0.301 0.319)" fill="#7d868c" opacity="0.3"/>
                </g>
                <rect id="Rectangle_37" data-name="Rectangle 37" width="7.937" height="1" transform="translate(0.301 4.912)" fill="#b08b80"/>
                <rect id="Rectangle_38" data-name="Rectangle 38" width="1" height="9.381" transform="translate(3.887 0.512)" fill="#b08b80"/>
              </g>
              <rect id="Rectangle-121" data-name="Rectangle" width="23.434" height="2.531" transform="translate(143.826 105.624)" fill="#7962d6"/>
              <rect id="Rectangle-122" data-name="Rectangle" width="23.434" height="2.531" transform="translate(143.826 81.173)" fill="#7962d6"/>
              <g id="Group_38" data-name="Group 38" transform="translate(11.284)">
                <path id="Path-62" data-name="Path" d="M14.369,14.87h8.438v5.394c-1.555-2.461-5.83-3.632-8.438-3.632s-6.884,1.183-8.438,3.632V14.87Z" fill="#392e80" fill-rule="evenodd"/>
                <g id="Path-63" data-name="Path" transform="translate(3.761)">
                  <path id="Path_14" data-name="Path 14" d="M21.077,12.764c0-8.6-10.281-11.155-10.469-12.433C10.419,1.609.138,4.164.138,12.764Z" fill="#d8d2c4" fill-rule="evenodd"/>
                  <path id="Path_15" data-name="Path 15" d="M.138,12.764h2.62c.163-5.335,3.887-9.1,6.633-11.451C6.633,2.91.138,5.926.138,12.764Z" fill="#7d868c" fill-rule="evenodd" opacity="0.3"/>
                </g>
                <rect id="Rectangle-123" data-name="Rectangle" width="27.672" height="2.508" transform="translate(0.527 32.708)" fill="#392e80"/>
                <g id="Rectangle-124" data-name="Rectangle" transform="translate(2.508 14.854)">
                  <rect id="Rectangle_39" data-name="Rectangle 39" width="3.097" height="14.337" transform="translate(1.881 1.754)" fill="#392e80"/>
                  <rect id="Rectangle_40" data-name="Rectangle 40" width="3.097" height="1.396" transform="translate(1.881 1.754)" fill="#7d868c" opacity="0.3"/>
                  <g id="Group_34" data-name="Group 34" transform="translate(0 15.902)">
                    <rect id="Rectangle_41" data-name="Rectangle 41" width="6.219" height="1.763" transform="translate(0.313 0.201)" fill="#392e80"/>
                    <rect id="Rectangle_42" data-name="Rectangle 42" width="6.219" height="1" transform="translate(0.313 1.278)" fill="#7d868c" opacity="0.3"/>
                  </g>
                  <g id="Group_35" data-name="Group 35">
                    <rect id="Rectangle_43" data-name="Rectangle 43" width="6.219" height="1.763" transform="translate(0.313 0.003)" fill="#392e80"/>
                    <rect id="Rectangle_44" data-name="Rectangle 44" width="6.219" height="1" transform="translate(0.313 0.003)" fill="#7d868c" opacity="0.3"/>
                  </g>
                </g>
                <g id="Rectangle-125" data-name="Rectangle" transform="translate(19.508 14.854)">
                  <rect id="Rectangle_45" data-name="Rectangle 45" width="3.097" height="14.337" transform="translate(1.745 1.754)" fill="#392e80"/>
                  <rect id="Rectangle_46" data-name="Rectangle 46" width="3.097" height="1.396" transform="translate(1.745 1.754)" fill="#7d868c" opacity="0.3"/>
                  <g id="Group_36" data-name="Group 36" transform="translate(0 15.902)">
                    <rect id="Rectangle_47" data-name="Rectangle 47" width="6.219" height="1.763" transform="translate(0.177 0.201)" fill="#392e80"/>
                    <rect id="Rectangle_48" data-name="Rectangle 48" width="6.219" height="1" transform="translate(0.177 1.278)" fill="#7d868c" opacity="0.3"/>
                  </g>
                  <g id="Group_37" data-name="Group 37">
                    <rect id="Rectangle_49" data-name="Rectangle 49" width="6.219" height="1.763" transform="translate(0.177 0.003)" fill="#392e80"/>
                    <rect id="Rectangle_50" data-name="Rectangle 50" width="6.219" height="1" transform="translate(0.177 0.003)" fill="#7d868c" opacity="0.3"/>
                  </g>
                </g>
                <rect id="Rectangle-126" data-name="Rectangle" width="27.321" height="1" transform="translate(0.702 13.852)" fill="#d8d2c4"/>
                <g id="Rectangle-127" data-name="Rectangle" transform="translate(2.508 11.306)">
                  <rect id="Rectangle_51" data-name="Rectangle 51" width="23.108" height="2.177" transform="translate(0.301 0.37)" fill="#d8d2c4"/>
                  <rect id="Rectangle_52" data-name="Rectangle 52" width="23.108" height="1" transform="translate(0.301 1.671)" fill="#7d868c" opacity="0.3"/>
                </g>
              </g>
              <path id="Path-64" data-name="Path" d="M183.347,14.87h8.488v5.394c-1.554-2.461-5.83-3.632-8.438-3.632s-6.883,1.183-8.438,3.632V14.87Z" fill="#392e80" fill-rule="evenodd"/>
              <path id="Path-65" data-name="Path" d="M193.816,12.764c0-8.6-10.281-11.155-10.469-12.433-.188,1.278-10.469,3.833-10.469,12.433Z" fill="#d8d2c4" fill-rule="evenodd"/>
              <path id="Path-66" data-name="Path" d="M172.89,12.764h2.646c.163-5.335,3.887-9.1,6.632-11.451C179.385,2.91,172.89,5.926,172.89,12.764Z" fill="#7d868c" fill-rule="evenodd" opacity="0.3"/>
              <rect id="Rectangle-128" data-name="Rectangle" width="27.672" height="2.508" transform="translate(169.517 32.708)" fill="#392e80"/>
              <g id="Rectangle-129" data-name="Rectangle" transform="translate(171.774 14.854)">
                <rect id="Rectangle_53" data-name="Rectangle 53" width="3.097" height="14.337" transform="translate(1.592 1.754)" fill="#392e80"/>
                <rect id="Rectangle_54" data-name="Rectangle 54" width="3.097" height="1.396" transform="translate(1.592 1.754)" fill="#7d868c" opacity="0.3"/>
                <g id="Group_39" data-name="Group 39" transform="translate(0 15.902)">
                  <rect id="Rectangle_55" data-name="Rectangle 55" width="6.219" height="1.763" transform="translate(0.038 0.201)" fill="#392e80"/>
                  <rect id="Rectangle_56" data-name="Rectangle 56" width="6.219" height="1" transform="translate(0.038 1.278)" fill="#7d868c" opacity="0.3"/>
                </g>
                <g id="Group_40" data-name="Group 40">
                  <rect id="Rectangle_57" data-name="Rectangle 57" width="6.219" height="1.763" transform="translate(0.038 0.003)" fill="#392e80"/>
                  <rect id="Rectangle_58" data-name="Rectangle 58" width="6.219" height="1" transform="translate(0.038 0.003)" fill="#7d868c" opacity="0.3"/>
                </g>
              </g>
              <g id="Rectangle-130" data-name="Rectangle" transform="translate(188.074 14.854)">
                <rect id="Rectangle_59" data-name="Rectangle 59" width="3.097" height="14.337" transform="translate(2.169 1.754)" fill="#392e80"/>
                <rect id="Rectangle_60" data-name="Rectangle 60" width="3.097" height="1.396" transform="translate(2.169 1.754)" fill="#7d868c" opacity="0.3"/>
                <g id="Group_41" data-name="Group 41" transform="translate(0 15.902)">
                  <rect id="Rectangle_61" data-name="Rectangle 61" width="6.219" height="1.763" transform="translate(0.602 0.201)" fill="#392e80"/>
                  <rect id="Rectangle_62" data-name="Rectangle 62" width="6.219" height="1" transform="translate(0.602 1.278)" fill="#7d868c" opacity="0.3"/>
                </g>
                <g id="Group_42" data-name="Group 42">
                  <rect id="Rectangle_63" data-name="Rectangle 63" width="6.219" height="1.763" transform="translate(0.602 0.003)" fill="#392e80"/>
                  <rect id="Rectangle_64" data-name="Rectangle 64" width="6.219" height="1" transform="translate(0.602 0.003)" fill="#7d868c" opacity="0.3"/>
                </g>
              </g>
              <rect id="Rectangle-131" data-name="Rectangle" width="27.321" height="1" transform="translate(169.693 13.852)" fill="#d8d2c4"/>
              <g id="Rectangle-132" data-name="Rectangle" transform="translate(171.774 11.306)">
                <rect id="Rectangle_65" data-name="Rectangle 65" width="23.108" height="2.177" transform="translate(0.025 0.37)" fill="#d8d2c4"/>
                <rect id="Rectangle_66" data-name="Rectangle 66" width="23.108" height="1" transform="translate(0.025 1.671)" fill="#7d868c" opacity="0.3"/>
              </g>
            </g>
            <g id="Group_44" data-name="Group 44">
              <g id="Path-67" data-name="Path" transform="translate(249.796 252.83)">
                <path id="Path_16" data-name="Path 16" d="M.452,98.336C-2.159,41.309,19.82.2,23.046.2S48.152,41.309,45.641,98.336Z" fill="#bf3c79" fill-rule="evenodd"/>
                <path id="Path_17" data-name="Path 17" d="M23.009,8.207c2.937,0,21.766,34.788,22.733,84.757q0,2.634-.176,5.314H.452Q.326,95.6.276,92.964C1.255,43.053,20.084,8.207,23.009,8.207Z" fill="#bf3c79" fill-rule="evenodd" opacity="0.4"/>
                <path id="Path_18" data-name="Path 18" d="M.452,98.336C-2.159,41.309,19.82.2,23.046.2S48.152,41.309,45.641,98.336Z" fill="#bf3c79" fill-rule="evenodd"/>
              </g>
              <g id="Path-68" data-name="Path" transform="translate(272.391 252.83)">
                <path id="Path_19" data-name="Path 19" d="M.828,98.336C-1.18,8.3,4.418,9.108,9.7.2,30.327,15.23,45.516,64.977,45.516,98.336Z" fill="#7962d6" fill-rule="evenodd"/>
                <path id="Path_20" data-name="Path 20" d="M45.516,98.336H31.708C31.708,29.393,15.389,12.046,9.753.2,30.327,15.23,45.516,64.977,45.516,98.336Z" fill="#7962d6" fill-rule="evenodd" opacity="0.4"/>
                <path id="Path_21" data-name="Path 21" d="M.828,98.336C-1.18,8.3,4.418,9.108,9.7.2,30.327,15.23,45.516,64.977,45.516,98.336Z" fill="#7962d6" fill-rule="evenodd"/>
              </g>
              <g id="Path-69" data-name="Path" transform="translate(289.964 251.659)">
                <path id="Path_22" data-name="Path 22" d="M28.155,99.507C15.6,21.867,5.561,16.962.05.072c18,10.066,62.148,61.85,62.148,99.435Z" fill="#392e80" fill-rule="evenodd"/>
                <path id="Path_23" data-name="Path 23" d="M62.2,99.507H47.323A144.683,144.683,0,0,0,23.737,21.481C42.264,42.6,62.2,74.259,62.2,99.507Z" fill="#392e80" fill-rule="evenodd" opacity="0.4"/>
                <path id="Path_24" data-name="Path 24" d="M28.155,99.507C15.6,21.867,5.561,16.962.05.072c18,10.066,62.148,61.85,62.148,99.435Z" fill="#392e80" fill-rule="evenodd"/>
              </g>
              <path id="Path-70" data-name="Path" d="M376.577,330.671c-1.745,2.961-6.9,8.392-8.46,20.495h-9.6S363.083,332.063,376.577,330.671Z" fill="#392e80" fill-rule="evenodd"/>
              <path id="Path-71" data-name="Path" d="M351.56,332.59c3.238-.421,19.431-2.926,25.017-1.919-5.937,4.682-10.255,10.253-14.034,20.495H349.037Z" fill="#bf3c79" fill-rule="evenodd"/>
              <path id="Path-72" data-name="Path" d="M351.56,332.59c3.238-.421,19.431-2.926,25.017-1.919-5.937,4.682-10.255,10.253-14.034,20.495H349.037Z" fill="#bf3c79" fill-rule="evenodd" opacity="0.4"/>
              <path id="Path-73" data-name="Path" d="M351.56,332.59c3.238-.421,19.431-2.926,25.017-1.919-5.937,4.682-10.255,10.253-14.034,20.495H349.037Z" fill="#7962d6" fill-rule="evenodd"/>
              <g id="Path-74" data-name="Path" transform="translate(322.047 281.439)">
                <path id="Path_25" data-name="Path 25" d="M1.081,69.727C1.257,60.433.165,52.65.4.468,23.437,14.62,34.371,53.82,34.371,69.727Z" fill="#bf3c79" fill-rule="evenodd"/>
                <path id="Path_26" data-name="Path 26" d="M34.371,69.727H30.115c0-16.106-5.649-38.884-13.268-52.673C28.684,34.612,34.371,58.244,34.371,69.727Z" fill="#bf3c79" fill-rule="evenodd" opacity="0.4"/>
                <path id="Path_27" data-name="Path 27" d="M1.081,69.727C1.257,60.433.165,52.65.4.468,23.437,14.62,34.371,53.82,34.371,69.727Z" fill="#bf3c79" fill-rule="evenodd"/>
              </g>
              <path id="Path-75" data-name="Path" d="M323.128,351.166c3.239-14.631-10.444-58.081-31.67-70.8-7.921,9.516-19.193,34.249-12.716,70.8Z" fill="#bf3c79" fill-rule="evenodd"/>
              <path id="Path-76" data-name="Path" d="M291.458,280.362c21.239,12.712,34.909,56.184,31.67,70.8H305.856C310.35,330.671,300.207,294.022,291.458,280.362Z" fill="#7d868c" fill-rule="evenodd" opacity="0.4"/>
              <path id="Path-77" data-name="Path" d="M312.684,351.166c1.369-3.418,4.833-10.663,10.268-15.591,7.946-3.594,17.449-5.583,20.863-5.759,1.983,1.849,8.636,10.675,10.983,21.338Z" fill="#7962d6" fill-rule="evenodd"/>
              <g id="Path-78" data-name="Path" transform="translate(227.201 252.83)">
                <path id="Path_28" data-name="Path 28" d="M45.315,98.336C47.323,8.3,41.725,9.108,36.44.2,15.8,15.23.628,64.977.628,98.336Z" fill="#392e80" fill-rule="evenodd"/>
                <path id="Path_29" data-name="Path 29" d="M36.4.2c5.285,8.919,10.883,8.1,8.875,98.135H14.486C14.486,29.393,30.854,12.046,36.4.2Z" fill="#392e80" fill-rule="evenodd" opacity="0.3"/>
                <path id="Path_30" data-name="Path 30" d="M45.315,98.336C47.323,8.3,41.725,9.108,36.44.2,15.8,15.23.628,64.977.628,98.336Z" fill="#392e80" fill-rule="evenodd"/>
              </g>
              <path id="Path-79" data-name="Path" d="M227.616,351.166c12.552-77.64,22.594-82.544,28.1-99.435-18,10.067-62.148,61.85-62.148,99.435Z" fill="#7962d6" fill-rule="evenodd"/>
              <path id="Path-80" data-name="Path" d="M193.573,351.166h14.875a144.681,144.681,0,0,1,23.586-78.026C213.507,294.256,193.573,325.918,193.573,351.166Z" fill="#7962d6" fill-rule="evenodd" opacity="0.4"/>
              <path id="Path-81" data-name="Path" d="M227.616,351.166c12.552-77.64,22.594-82.544,28.1-99.435-18,10.067-62.148,61.85-62.148,99.435Z" fill="#7962d6" fill-rule="evenodd"/>
              <g id="Path-82" data-name="Path" transform="translate(168.906 330.083)">
                <path id="Path_31" data-name="Path 31" d="M.253.587C2,3.548,7.157,8.98,8.713,21.083h9.6S13.747,1.98.253.587Z" fill="#7962d6" fill-rule="evenodd"/>
                <path id="Path_32" data-name="Path 32" d="M25.27,2.507C22.031,2.085,5.839-.42.253.587c5.937,4.682,10.255,10.254,14.034,20.5H27.793Z" fill="#7962d6" fill-rule="evenodd"/>
                <path id="Path_33" data-name="Path 33" d="M26.312,10.2l1.481,10.886H14.286A52.747,52.747,0,0,0,8.161,8.874,84.788,84.788,0,0,1,26.312,10.2Z" fill="#7962d6" fill-rule="evenodd" opacity="0.4"/>
              </g>
              <g id="Path-83" data-name="Path" transform="translate(188.99 281.439)">
                <path id="Path_34" data-name="Path 34" d="M33.618,69.727c-.176-9.294.916-17.078.678-69.259C11.261,14.62.328,53.82.328,69.727Z" fill="#bf3c79" fill-rule="evenodd"/>
                <path id="Path_35" data-name="Path 35" d="M.328,69.727H4.583c0-16.106,5.649-38.884,13.268-52.673C6.014,34.612.328,58.244.328,69.727Z" fill="#bf3c79" fill-rule="evenodd" opacity="0.4"/>
                <path id="Path_36" data-name="Path 36" d="M33.618,69.727c-.176-9.294.916-17.078.678-69.259C11.261,14.62.328,53.82.328,69.727Z" fill="#bf3c79" fill-rule="evenodd"/>
              </g>
              <g id="Path-84" data-name="Path" transform="translate(221.626 280.268)">
                <path id="Path_37" data-name="Path 37" d="M.981,70.9C-2.258,56.266,11.425,12.817,32.651.094,40.572,9.61,51.844,34.343,45.367,70.9Z" fill="#bf3c79" fill-rule="evenodd"/>
                <path id="Path_38" data-name="Path 38" d="M32.651.094C40.572,9.61,51.844,34.343,45.367,70.9H18.253C13.759,50.4,23.9,13.753,32.651.094Z" fill="#bf3c79" fill-rule="evenodd" opacity="0.3"/>
              </g>
              <path id="Path-85" data-name="Path" d="M233.051,351.166c-1.368-3.418-4.833-10.663-10.268-15.591-7.946-3.594-17.448-5.583-20.862-5.759-1.984,1.849-8.637,10.675-10.984,21.338Z" fill="#fce9db" fill-rule="evenodd"/>
              <path id="Path-86" data-name="Path" d="M233.051,351.166c-1.368-3.418-4.833-10.663-10.268-15.591-7.946-3.594-17.448-5.583-20.862-5.759-1.984,1.849-8.637,10.675-10.984,21.338Z" fill="#7962d6" fill-rule="evenodd"/>
              <path id="Path-87" data-name="Path" d="M243.834,351.166c8.4-14.631,22.983-18.576,29.034-20.741,6.05,2.153,20.636,6.11,29.034,20.741Z" fill="#7962d6" fill-rule="evenodd"/>
            </g>
          </g>
        </g>
      </g>
    </g>
  </g>
</svg>
